<?xml version="1.0" encoding="UTF-8"?>
<svg version="1.1" xmlns="http://www.w3.org/2000/svg" width="204" height="199">
<path d="M0 0 C67.32 0 134.64 0 204 0 C204 65.67 204 131.34 204 199 C136.68 199 69.36 199 0 199 C0 133.33 0 67.66 0 0 Z " fill="#FEFEFE" transform="translate(0,0)"/>
<path d="M0 0 C1.18013672 0.00064453 2.36027344 0.00128906 3.57617188 0.00195312 C20.33636372 0.08636372 20.33636372 0.08636372 22.4375 2.1875 C23.00055774 8.27718601 20.96731487 11.11082952 17.44140625 15.84765625 C13.09986789 20.91701586 7.61266982 24.70039685 0.859375 25.48828125 C-7.63315878 25.52552921 -14.3275715 24.68264665 -20.625 18.625 C-23.5625 15.52763605 -23.5625 15.52763605 -23.5625 13.1875 C-24.2225 13.1875 -24.8825 13.1875 -25.5625 13.1875 C-25.8925 10.5475 -26.2225 7.9075 -26.5625 5.1875 C-19.79015632 -1.29039396 -8.65838306 -0.09014207 0 0 Z " fill="#313B46" transform="translate(64.5625,49.8125)"/>
<path d="M0 0 C1.30130859 -0.020625 2.60261719 -0.04125 3.94335938 -0.0625 C5.20083984 -0.06765625 6.45832031 -0.0728125 7.75390625 -0.078125 C8.89287354 -0.0874707 10.03184082 -0.09681641 11.20532227 -0.10644531 C14.84559744 0.29500508 17.27956746 1.44069006 20.4375 3.25 C21.08567885 7.57119233 20.31185449 9.88239631 17.8125 13.3125 C13.41229295 18.7122857 8.42603769 23.58973966 1.4375 25.25 C-4.9279521 25.87540781 -11.33062978 26.36075517 -16.5625 22.25 C-21.43515513 16.06414704 -24.00108613 11.29074569 -23.5625 3.25 C-18.4241406 -1.8883594 -6.84578146 0.02720628 0 0 Z " fill="#313B46" transform="translate(138.5625,48.75)"/>
<path d="M0 0 C3.48912104 0.00578798 6.97816666 0.00234634 10.46728516 -0.00357246 C13.81576147 -0.00803051 17.16421685 -0.00492474 20.51269531 -0.00244141 C21.76663086 -0.00446564 23.02056641 -0.00648987 24.3125 -0.00857544 C25.45879883 -0.00542328 26.60509766 -0.00227112 27.78613281 0.00097656 C28.79853027 0.00177216 29.81092773 0.00256775 30.85400391 0.00338745 C33.13769531 0.13037109 33.13769531 0.13037109 34.13769531 1.13037109 C34.17833363 2.79654224 34.18041631 4.46425204 34.13769531 6.13037109 C30.485508 8.43142576 27.37907319 8.38378877 23.12182617 8.38916016 C22.42380386 8.39266479 21.72578156 8.39616943 21.00660706 8.39978027 C18.70514916 8.40856483 16.40399995 8.40276079 14.10253906 8.39599609 C12.5011845 8.39734354 10.89983034 8.39928473 9.29847717 8.40179443 C5.94528298 8.40474112 2.59219545 8.40046215 -0.76098633 8.39111328 C-5.0608292 8.37970975 -9.36042263 8.38628671 -13.66025639 8.39825821 C-16.96563094 8.40548126 -20.27094623 8.403187 -23.57632256 8.39800262 C-25.16197171 8.39666784 -26.74762623 8.39830788 -28.33326912 8.40296173 C-30.5476014 8.40803532 -32.76152804 8.40030573 -34.97583008 8.38916016 C-36.23617569 8.38756897 -37.4965213 8.38597778 -38.7950592 8.38433838 C-41.86230469 8.13037109 -41.86230469 8.13037109 -44.86230469 6.13037109 C-44.53230469 4.48037109 -44.20230469 2.83037109 -43.86230469 1.13037109 C-29.25439189 -0.06072729 -14.64661986 -0.02466082 0 0 Z " fill="#39434C" transform="translate(102.8623046875,133.86962890625)"/>
<path d="M0 0 C3.3 0 6.6 0 10 0 C10 0.33 10 0.66 10 1 C8.2984375 1.2165625 8.2984375 1.2165625 6.5625 1.4375 C3.19222799 1.61171478 3.19222799 1.61171478 2 3 C1.58454473 8.2970547 2.42993859 11.39530665 5 16 C5 16.66 5 17.32 5 18 C3.68 17.67 2.36 17.34 1 17 C-2.15727003 4.31454006 -2.15727003 4.31454006 0 0 Z " fill="#C3CBD1" transform="translate(114,49)"/>
<path d="M0 0 C0.66 0 1.32 0 2 0 C3.44794738 4.21221057 2.71596499 7.07930133 1.1015625 11.0625 C-0.69512146 14.22262497 -3.05734287 15.90744382 -6 18 C-6.66 17.67 -7.32 17.34 -8 17 C-7.50628906 16.44570312 -7.01257813 15.89140625 -6.50390625 15.3203125 C-5.86324219 14.59585938 -5.22257813 13.87140625 -4.5625 13.125 C-3.92441406 12.40570313 -3.28632813 11.68640625 -2.62890625 10.9453125 C0.40598514 7.32090983 0.08608542 4.64861279 0 0 Z " fill="#B2B8BD" transform="translate(158,51)"/>
<path d="M0 0 C0.75 1.5625 0.75 1.5625 1 4 C-0.02332869 6.54719859 -1.27272296 8.86333587 -3 11 C-3.99 11.33 -4.98 11.66 -6 12 C-6.66 11.67 -7.32 11.34 -8 11 C-7.59007813 10.45730469 -7.18015625 9.91460937 -6.7578125 9.35546875 C-6.21898438 8.64003906 -5.68015625 7.92460938 -5.125 7.1875 C-4.59132813 6.47980469 -4.05765625 5.77210937 -3.5078125 5.04296875 C-2.29185219 3.39543703 -1.13583859 1.70375789 0 0 Z " fill="#CACDD3" transform="translate(86,58)"/>
<path d="M0 0 C0.66 0.33 1.32 0.66 2 1 C0.60667426 4.36720387 -0.9789286 5.9859524 -4 8 C-4.66 7.34 -5.32 6.68 -6 6 C-5.01 6 -4.02 6 -3 6 C-2.87625 5.38125 -2.7525 4.7625 -2.625 4.125 C-2 2 -2 2 0 0 Z " fill="#363F49" transform="translate(153,61)"/>
<path d="M0 0 C3.3 0 6.6 0 10 0 C10 0.33 10 0.66 10 1 C8.88625 1.12375 7.7725 1.2475 6.625 1.375 C2.96896323 1.6465813 2.96896323 1.6465813 1 4 C0.30251417 5.31747324 -0.36959957 6.64914193 -1 8 C-1.125 2.25 -1.125 2.25 0 0 Z " fill="#DBE2E8" transform="translate(114,49)"/>
<path d="M0 0 C0.66 0 1.32 0 2 0 C1.34 3.3 0.68 6.6 0 10 C-2.14915785 6.77626323 -2.38286803 5.73296326 -2 2 C-1.34 1.34 -0.68 0.68 0 0 Z " fill="#676D72" transform="translate(40,53)"/>
<path d="M0 0 C2.475 0.495 2.475 0.495 5 1 C5 2.32 5 3.64 5 5 C3.35 4.67 1.7 4.34 0 4 C0 2.68 0 1.36 0 0 Z " fill="#44494D" transform="translate(58,136)"/>
<path d="M0 0 C0.66 0.33 1.32 0.66 2 1 C0 4 0 4 -1.9453125 4.51171875 C-2.66460937 4.56972656 -3.38390625 4.62773438 -4.125 4.6875 C-6.043125 4.8421875 -6.043125 4.8421875 -8 5 C-5.56159764 2.56159764 -3.14759102 1.37707107 0 0 Z " fill="#B3BABC" transform="translate(76,70)"/>
</svg>
